<svg width="40" height="40" viewBox="0 0 40 40" fill="none" xmlns="http://www.w3.org/2000/svg">
<path d="M25.3594 12.7686L24.7094 12.7686L24.7094 12.7686L25.3594 12.7686ZM27 36V36.65H27.7602L27.6421 35.899L27 36ZM14 36L13.3579 35.899L13.2398 36.65H14V36ZM15.6406 6V5.35H14.9906V6H15.6406ZM25.3594 6H26.0094V5.35H25.3594V6ZM25.3594 12.7686L24.7094 12.7686C24.7094 23.0506 25.8067 32.5967 26.3579 36.101L27 36L27.6421 35.899C27.0999 32.4521 26.0094 22.9741 26.0094 12.7686L25.3594 12.7686ZM27 36V35.35H14V36V36.65H27V36ZM14 36L14.6421 36.101C15.1933 32.5967 16.2906 23.0498 16.2906 12.7676H15.6406H14.9906C14.9906 22.9733 13.9001 32.4521 13.3579 35.899L14 36ZM15.6406 12.7676H16.2906V6H15.6406H14.9906V12.7676H15.6406ZM15.6406 6V6.65H25.3594V6V5.35H15.6406V6ZM25.3594 6H24.7094V12.7686H25.3594H26.0094V6H25.3594Z" fill="#FF4D00"/>
<path d="M25.3594 12.7686H24.8594V12.7686L25.3594 12.7686ZM27 36V36.5H27.5848L27.4939 35.9223L27 36ZM14 36L13.5061 35.9223L13.4152 36.5H14V36ZM15.6406 6V5.5H15.1406V6H15.6406ZM25.3594 6H25.8594V5.5H25.3594V6ZM25.3594 12.7686L24.8594 12.7686C24.8594 23.0418 25.9559 32.58 26.5061 36.0777L27 36L27.4939 35.9223C26.9507 32.4688 25.8594 22.9829 25.8594 12.7686L25.3594 12.7686ZM27 36V35.5H14V36V36.5H27V36ZM14 36L14.4939 36.0777C15.0441 32.58 16.1406 23.041 16.1406 12.7676H15.6406H15.1406C15.1406 22.9821 14.0493 32.4688 13.5061 35.9223L14 36ZM15.6406 12.7676H16.1406V6H15.6406H15.1406V12.7676H15.6406ZM15.6406 6V6.5H25.3594V6V5.5H15.6406V6ZM25.3594 6H24.8594V12.7686H25.3594H25.8594V6H25.3594Z" fill="#FF4D00"/>
<path d="M19 36C18.6667 32.5244 18 23.0122 18 12.7683V6" stroke="#FF4D00" stroke-width="1.3"/>
<line x1="18" y1="9.35" x2="25" y2="9.35" stroke="#FF4D00" stroke-width="1.3"/>
<line x1="18" y1="9.35" x2="25" y2="9.35" stroke="#FF4D00" stroke-width="1.3"/>
<line x1="18" y1="11.35" x2="25" y2="11.35" stroke="#FF4D00" stroke-width="1.3"/>
<line x1="18" y1="13.35" x2="25" y2="13.35" stroke="#FF4D00" stroke-width="1.3"/>
<line x1="18" y1="15.35" x2="25" y2="15.35" stroke="#FF4D00" stroke-width="1.3"/>
<line x1="18" y1="17.35" x2="25" y2="17.35" stroke="#FF4D00" stroke-width="1.3"/>
<line x1="18" y1="19.35" x2="26" y2="19.35" stroke="#FF4D00" stroke-width="1.3"/>
<line x1="18" y1="21.35" x2="26" y2="21.35" stroke="#FF4D00" stroke-width="1.3"/>
<line x1="18" y1="23.35" x2="26" y2="23.35" stroke="#FF4D00" stroke-width="1.3"/>
<line x1="18" y1="25.35" x2="26" y2="25.35" stroke="#FF4D00" stroke-width="1.3"/>
<line x1="18" y1="27.35" x2="26" y2="27.35" stroke="#FF4D00" stroke-width="1.3"/>
<line x1="19" y1="29.35" x2="26" y2="29.35" stroke="#FF4D00" stroke-width="1.3"/>
<line x1="19" y1="31.35" x2="26" y2="31.35" stroke="#FF4D00" stroke-width="1.3"/>
<line x1="19" y1="33.35" x2="27" y2="33.35" stroke="#FF4D00" stroke-width="1.3"/>
<path d="M18 3V6" stroke="#FF4D00" stroke-width="1.3"/>
<path d="M18 3V6" stroke="#FF4D00" stroke-width="1.3"/>
</svg>
